# Blender v2.79 (sub 0) OBJ File: 'radar 2x2x2.blend'
# www.blender.org
mtllib radar 2x2x2.mtl
o Cylinder.002
v -0.600000 0.000000 0.412152
v 0.600000 0.000000 0.412152
v -0.600000 0.000000 -0.207366
v -0.019518 0.000000 -0.787848
v -0.571589 0.000000 -0.386745
v -0.489138 0.000000 -0.548565
v -0.360717 0.000000 -0.676986
v -0.198897 0.000000 -0.759437
v 0.019518 0.000000 -0.787848
v 0.600000 0.000000 -0.207366
v 0.198897 0.000000 -0.759437
v 0.360717 0.000000 -0.676986
v 0.489138 0.000000 -0.548565
v 0.571589 0.000000 -0.386745
v -0.554089 0.840591 0.412152
v -0.600000 0.794680 0.412152
v 0.600000 0.794680 0.412152
v 0.554089 0.840591 0.412152
v -0.554089 0.000000 0.965394
v -0.600000 0.000000 0.919483
v 0.600000 0.000000 0.919483
v 0.554089 0.000000 0.965394
v -0.600000 0.394947 0.919483
v -0.554089 0.398560 0.965394
v -0.600000 0.794680 0.519750
v -0.554089 0.840591 0.523363
v -0.600000 0.520791 0.899552
v -0.554089 0.535155 0.943760
v -0.600000 0.631057 0.843368
v -0.554089 0.658379 0.880974
v -0.600000 0.718565 0.755860
v -0.554089 0.756170 0.783183
v -0.600000 0.774748 0.645594
v -0.554089 0.818956 0.659958
v 0.600000 0.794680 0.519750
v 0.554089 0.840591 0.523363
v 0.600000 0.394947 0.919483
v 0.554089 0.398560 0.965394
v 0.600000 0.774748 0.645594
v 0.554089 0.818956 0.659958
v 0.600000 0.718565 0.755860
v 0.554089 0.756170 0.783183
v 0.600000 0.631057 0.843368
v 0.554089 0.658379 0.880974
v 0.600000 0.520791 0.899552
v 0.554089 0.535155 0.943760
v -0.015905 0.840591 -0.741937
v -0.019518 0.794680 -0.787848
v -0.554089 0.840591 -0.203753
v -0.600000 0.794680 -0.207366
v -0.184533 0.840591 -0.715229
v -0.198897 0.794680 -0.759437
v -0.333395 0.840591 -0.639380
v -0.360717 0.794680 -0.676986
v -0.451532 0.840591 -0.521243
v -0.489138 0.794680 -0.548565
v -0.527381 0.840591 -0.372381
v -0.571589 0.794680 -0.386745
v 0.554089 0.840591 -0.203753
v 0.600000 0.794680 -0.207366
v 0.015905 0.840591 -0.741937
v 0.019518 0.794680 -0.787848
v 0.527381 0.840591 -0.372381
v 0.571589 0.794680 -0.386745
v 0.451532 0.840591 -0.521243
v 0.489138 0.794680 -0.548565
v 0.333395 0.840591 -0.639381
v 0.360717 0.794680 -0.676986
v 0.184533 0.840591 -0.715229
v 0.198897 0.794680 -0.759437
vn -0.9877 0.0000 -0.1564
vn 0.0000 1.0000 0.0000
vn 0.0000 0.0000 1.0000
vn 1.0000 0.0000 0.0000
vn -1.0000 0.0000 0.0000
vn 0.0000 0.1564 0.9877
vn 0.0000 0.4540 0.8910
vn -0.1564 -0.0000 -0.9877
vn 0.0000 0.8910 0.4540
vn 0.0000 0.7071 0.7071
vn 0.0000 0.9877 0.1564
vn 0.0000 -1.0000 0.0000
vn 0.0000 0.0000 -1.0000
vn -0.7071 0.0000 -0.7071
vn -0.8910 0.0000 -0.4540
vn 0.9877 0.0000 -0.1564
vn -0.4540 0.0000 -0.8910
vn 0.1564 0.0000 -0.9877
vn 0.7071 -0.0000 -0.7071
vn 0.4540 -0.0000 -0.8910
vn 0.8910 0.0000 -0.4540
vn 0.7071 0.6984 0.1106
vn -0.7071 0.6984 0.1106
vn 0.7071 0.6300 0.3210
vn -0.7071 0.6300 0.3210
vn 0.7071 0.5000 0.5000
vn -0.7071 0.5000 0.5000
vn 0.7071 0.3210 0.6300
vn -0.7071 0.3210 0.6300
vn 0.7071 0.1106 0.6984
vn -0.7071 0.1106 0.6984
vn 0.7071 0.0000 0.7071
vn -0.7071 0.0000 0.7071
vn 0.7071 0.7071 0.0000
vn -0.7071 0.7071 0.0000
vn -0.1106 0.7071 -0.6984
vn -0.3210 0.7071 -0.6300
vn -0.5000 0.7071 -0.5000
vn -0.6300 0.7071 -0.3210
vn -0.6984 0.7071 -0.1106
vn 0.6984 0.7071 -0.1106
vn 0.6300 0.7071 -0.3210
vn 0.5000 0.7071 -0.5000
vn 0.3210 0.7071 -0.6300
vn 0.1106 0.7071 -0.6984
vn 0.0000 0.7071 -0.7071
usemtl None
s off
f 58//1 5//1 3//1 50//1
f 18//2 15//2 26//2 36//2
f 22//3 38//3 24//3 19//3
f 10//4 60//4 17//4 2//4
f 2//4 17//4 35//4 39//4 41//4 43//4 45//4 37//4 21//4
f 1//5 16//5 50//5 3//5
f 46//6 28//6 24//6 38//6
f 59//2 63//2 65//2 67//2 69//2 61//2 47//2 51//2 53//2 55//2 57//2 49//2 15//2 18//2
f 44//7 30//7 28//7 46//7
f 48//8 4//8 8//8 52//8
f 40//9 34//9 32//9 42//9
f 42//10 32//10 30//10 44//10
f 36//11 26//11 34//11 40//11
f 1//12 2//12 21//12 22//12 19//12 20//12
f 4//13 48//13 62//13 9//13
f 54//14 7//14 6//14 56//14
f 56//15 6//15 5//15 58//15
f 60//16 10//16 14//16 64//16
f 52//17 8//17 7//17 54//17
f 70//18 11//18 9//18 62//18
f 66//19 13//19 12//19 68//19
f 68//20 12//20 11//20 70//20
f 64//21 14//21 13//21 66//21
f 3//12 5//12 6//12 7//12 8//12 4//12 9//12 11//12 12//12 13//12 14//12 10//12 2//12 1//12
f 39//22 35//22 36//22 40//22
f 25//23 33//23 34//23 26//23
f 41//24 39//24 40//24 42//24
f 33//25 31//25 32//25 34//25
f 43//26 41//26 42//26 44//26
f 31//27 29//27 30//27 32//27
f 45//28 43//28 44//28 46//28
f 29//29 27//29 28//29 30//29
f 37//30 45//30 46//30 38//30
f 27//31 23//31 24//31 28//31
f 21//32 37//32 38//32 22//32
f 23//33 20//33 19//33 24//33
f 35//34 17//34 18//34 36//34
f 16//35 25//35 26//35 15//35
f 51//36 47//36 48//36 52//36
f 53//37 51//37 52//37 54//37
f 55//38 53//38 54//38 56//38
f 57//39 55//39 56//39 58//39
f 49//40 57//40 58//40 50//40
f 63//41 59//41 60//41 64//41
f 65//42 63//42 64//42 66//42
f 67//43 65//43 66//43 68//43
f 69//44 67//44 68//44 70//44
f 61//45 69//45 70//45 62//45
f 15//35 49//35 50//35 16//35
f 47//46 61//46 62//46 48//46
f 17//34 60//34 59//34 18//34
f 16//5 1//5 20//5 23//5 27//5 29//5 31//5 33//5 25//5
o Cylinder
v 0.000508 1.979823 -0.638506
v 0.000508 1.053821 -0.638506
v 0.685617 1.979823 -0.712266
v 0.685617 1.053821 -0.712266
v 1.266423 1.979823 -0.922317
v 1.266423 1.053821 -0.922317
v 0.227803 1.053821 -0.673382
v 0.227803 1.979823 -0.673382
v 0.233083 1.053821 -0.639440
v 0.233083 1.979823 -0.639440
v -1.265408 1.979823 -0.922317
v -1.265408 1.053821 -0.922317
v -0.684600 1.979823 -0.712266
v -0.684600 1.053821 -0.712266
v 0.000508 1.979823 -0.673312
v 0.000508 1.053821 -0.673312
v 0.670064 1.979823 -0.745345
v 0.670064 1.053821 -0.745345
v 1.235374 1.979823 -0.949596
v 1.235374 1.053821 -0.949596
v -0.226788 1.053821 -0.673382
v -0.226787 1.979823 -0.673382
v -0.232067 1.053821 -0.639440
v -0.232067 1.979823 -0.639440
v -1.234358 1.979823 -0.949596
v -1.234358 1.053821 -0.949596
v -0.669048 1.979823 -0.745344
v -0.669048 1.053821 -0.745344
v 1.654506 1.877241 -1.236680
v 1.531668 1.979823 -1.137176
v 1.531668 1.053821 -1.137176
v 1.654506 1.274744 -1.236680
v -1.530652 1.979823 -1.137175
v -1.653491 1.877241 -1.236680
v -1.653491 1.274744 -1.236680
v -1.530652 1.053821 -1.137175
v 1.493969 1.979823 -1.159727
v 1.616585 1.877241 -1.259364
v 1.616585 1.274744 -1.259364
v 1.493969 1.053821 -1.159727
v -1.615570 1.877241 -1.259364
v -1.492953 1.979823 -1.159727
v -1.492953 1.053821 -1.159727
v -1.615570 1.274744 -1.259364
v -0.464881 0.864701 -0.639440
v -0.464881 1.909045 -0.639440
v 0.444148 0.864701 -0.639440
v 0.444148 1.909045 -0.639440
v -0.464881 0.864701 0.208485
v -0.464881 1.086641 0.208485
v 0.444148 0.864701 0.208486
v 0.444148 1.086641 0.208486
v -0.414881 0.864701 -0.639440
v -0.414881 1.909045 -0.639440
v 0.494148 0.864701 -0.639440
v 0.494148 1.909045 -0.639440
v -0.414881 0.864701 0.208485
v -0.414881 1.086641 0.208485
v 0.494148 0.864701 0.208486
v 0.494148 1.086641 0.208486
v -0.464881 1.063822 -0.687332
v -0.464881 1.909045 -0.687332
v 0.444148 1.063822 -0.687332
v 0.444148 1.909045 -0.687332
v -0.414881 1.063822 -0.687332
v -0.414881 1.909045 -0.687332
v 0.494148 1.063822 -0.687332
v 0.494148 1.909045 -0.687332
v 0.007536 0.842099 -0.667269
v 0.179743 0.842099 -0.633015
v 0.325734 0.842099 -0.535467
v 0.423282 0.842099 -0.389477
v 0.457536 0.842099 -0.217269
v 0.423282 0.842099 -0.045061
v 0.325734 0.842099 0.100929
v 0.179743 0.842099 0.198477
v 0.007536 0.842099 0.232731
v -0.164672 0.842099 0.198477
v -0.310662 0.842099 0.100929
v -0.408210 0.842099 -0.045061
v -0.442464 0.842099 -0.217269
v -0.408210 0.842099 -0.389477
v -0.310662 0.842099 -0.535467
v -0.164672 0.842099 -0.633015
v 0.007536 1.163063 -0.558676
v 0.007536 1.056556 -0.667269
v 0.007536 1.131868 -0.635463
v 0.138187 1.163063 -0.532687
v 0.179743 1.056556 -0.633015
v 0.167572 1.131868 -0.603630
v 0.248947 1.163063 -0.458680
v 0.325734 1.056556 -0.535467
v 0.303243 1.131868 -0.512977
v 0.322954 1.163063 -0.347920
v 0.423282 1.056556 -0.389477
v 0.393896 1.131868 -0.377305
v 0.348942 1.163063 -0.217269
v 0.457536 1.056556 -0.217269
v 0.425730 1.131868 -0.217269
v 0.322954 1.163063 -0.086618
v 0.423282 1.056556 -0.045061
v 0.393896 1.131868 -0.057233
v 0.248947 1.163063 0.024142
v 0.325734 1.056556 0.100929
v 0.303243 1.131868 0.078439
v 0.138186 1.163063 0.098150
v 0.179743 1.056556 0.198477
v 0.167572 1.131868 0.169092
v 0.007536 1.163063 0.124138
v 0.007536 1.056556 0.232731
v 0.007536 1.131868 0.200925
v -0.123115 1.163063 0.098150
v -0.164672 1.056556 0.198477
v -0.152500 1.131868 0.169092
v -0.233875 1.163063 0.024142
v -0.310662 1.056556 0.100929
v -0.288172 1.131868 0.078439
v -0.307883 1.163063 -0.086618
v -0.408210 1.056556 -0.045061
v -0.378825 1.131868 -0.057233
v -0.333871 1.163063 -0.217269
v -0.442464 1.056556 -0.217269
v -0.410658 1.131868 -0.217269
v -0.307883 1.163063 -0.347920
v -0.408210 1.056556 -0.389477
v -0.378825 1.131868 -0.377305
v -0.233875 1.163063 -0.458680
v -0.310662 1.056556 -0.535467
v -0.288172 1.131868 -0.512977
v -0.123115 1.163063 -0.532688
v -0.164672 1.056556 -0.633015
v -0.152500 1.131868 -0.603630
v 0.003291 1.568079 -0.659508
v 0.092792 1.550276 -0.659508
v 0.168667 1.499578 -0.659508
v 0.219365 1.423703 -0.659508
v 0.237168 1.334202 -0.659508
v 0.219365 1.244701 -0.659508
v 0.168667 1.168826 -0.659508
v -0.162085 1.804718 0.204530
v 0.092792 1.118128 -0.659508
v -0.086210 1.804394 0.204530
v 0.003291 1.100325 -0.659508
v 0.168667 1.804718 0.204530
v -0.086210 1.118128 -0.659508
v 0.003291 1.804280 0.204530
v -0.162085 1.168826 -0.659508
v 0.092792 1.804394 0.204530
v -0.212783 1.244701 -0.659508
v -0.086210 1.804394 -0.659508
v -0.230586 1.334202 -0.659508
v -0.162085 1.804718 -0.659508
v -0.212783 1.423703 -0.659508
v 0.168667 1.804718 -0.659508
v -0.162085 1.499578 -0.659508
v 0.092792 1.804394 -0.659508
v -0.086210 1.550276 -0.659508
v 0.003291 1.804280 -0.659508
v 0.003291 1.495522 0.275692
v 0.003291 1.568079 0.204530
v 0.003291 1.546827 0.254849
v 0.065026 1.483243 0.275692
v 0.092792 1.550276 0.204530
v 0.084659 1.530642 0.254849
v 0.117362 1.448273 0.275692
v 0.168667 1.499578 0.204530
v 0.153640 1.484551 0.254849
v 0.152332 1.395936 0.275692
v 0.219365 1.423703 0.204530
v 0.199731 1.415570 0.254849
v 0.164612 1.334202 0.275692
v 0.237168 1.334202 0.204530
v 0.215917 1.334202 0.254849
v 0.152332 1.272467 0.275692
v 0.219365 1.244701 0.204530
v 0.199731 1.252834 0.254849
v 0.117362 1.220131 0.275692
v 0.168667 1.168826 0.204530
v 0.153640 1.183853 0.254849
v 0.065026 1.185161 0.275692
v 0.092792 1.118128 0.204530
v 0.084659 1.137762 0.254849
v 0.003291 1.172881 0.275692
v 0.003291 1.100325 0.204530
v 0.003291 1.121576 0.254849
v -0.058444 1.185161 0.275692
v -0.086210 1.118128 0.204530
v -0.078077 1.137762 0.254849
v -0.110780 1.220131 0.275692
v -0.162085 1.168826 0.204530
v -0.147058 1.183853 0.254849
v -0.145750 1.272467 0.275692
v -0.212783 1.244701 0.204530
v -0.193149 1.252834 0.254849
v -0.158029 1.334202 0.275692
v -0.230586 1.334202 0.204530
v -0.209334 1.334202 0.254849
v -0.145750 1.395937 0.275692
v -0.212783 1.423703 0.204530
v -0.193149 1.415570 0.254849
v -0.110780 1.448273 0.275692
v -0.162085 1.499578 0.204530
v -0.147058 1.484551 0.254849
v -0.058444 1.483243 0.275692
v -0.086210 1.550276 0.204530
v -0.078077 1.530642 0.254849
v 0.444148 0.828582 -0.639440
v 0.444148 0.828582 0.208486
v -0.464881 0.828582 -0.639440
v -0.464881 0.828582 0.208485
v 0.494148 0.828582 -0.639440
v 0.494148 0.828582 0.208486
v -0.414881 0.828582 -0.639440
v -0.414881 0.828582 0.208485
v 0.324109 0.864701 0.290546
v -0.294842 0.864701 0.290546
v -0.294842 0.828582 0.290546
v 0.324109 0.828582 0.290546
v -0.294842 0.828582 -0.639440
v 0.324109 0.828582 -0.639440
v -0.294842 0.864701 -0.639440
v 0.324109 0.864701 -0.639440
vn 0.1589 0.0000 0.9873
vn 0.3401 0.0000 0.9404
vn 0.5134 0.0000 -0.8582
vn 0.0000 1.0000 0.0000
vn -0.3401 0.0000 0.9404
vn -0.0040 0.0000 1.0000
vn -0.1606 -0.0000 -0.9870
vn -0.3398 0.0000 -0.9405
vn 0.6306 0.0000 -0.7761
vn 0.0000 -1.0000 0.0000
vn 0.3398 0.0000 -0.9405
vn 0.0003 -0.0000 -1.0000
vn 0.6294 0.0000 0.7770
vn -0.5134 0.0000 -0.8582
vn -0.6294 0.0000 0.7770
vn -0.6306 -0.0000 -0.7761
vn 0.2918 0.8227 -0.4879
vn 0.4261 -0.5577 -0.7123
vn -0.2918 0.8227 -0.4879
vn -0.4261 -0.5577 -0.7123
vn 0.1606 0.0000 -0.9870
vn -0.1589 0.0000 0.9873
vn -0.0003 -0.0000 -1.0000
vn 0.0040 0.0000 1.0000
vn -1.0000 0.0000 -0.0000
vn 1.0000 0.0000 0.0000
vn 0.0000 0.0000 1.0000
vn 0.0000 0.7178 0.6962
vn 0.0000 0.0000 -1.0000
vn 0.0000 -0.2338 -0.9723
vn -0.1951 0.0000 -0.9808
vn 0.8315 0.0000 -0.5556
vn 0.9808 0.0000 -0.1951
vn 0.9808 0.0000 0.1951
vn 0.8315 0.0000 0.5556
vn 0.5556 0.0000 0.8315
vn 0.1951 0.0000 0.9808
vn -0.1951 0.0000 0.9808
vn -0.5556 0.0000 0.8315
vn -0.8315 0.0000 0.5556
vn -0.9808 0.0000 0.1951
vn -0.9808 0.0000 -0.1951
vn -0.8315 0.0000 -0.5556
vn -0.5556 0.0000 -0.8315
vn 0.1951 0.0000 -0.9808
vn 0.5556 0.0000 -0.8315
vn 0.1802 0.3827 -0.9061
vn 0.0747 0.9239 -0.3753
vn 0.5133 0.3827 -0.7682
vn 0.2126 0.9239 -0.3182
vn 0.7682 0.3827 -0.5133
vn 0.3182 0.9239 -0.2126
vn 0.9061 0.3827 -0.1802
vn 0.3753 0.9239 -0.0747
vn 0.9061 0.3827 0.1802
vn 0.3753 0.9239 0.0747
vn 0.7682 0.3827 0.5133
vn 0.3182 0.9239 0.2126
vn 0.5133 0.3827 0.7682
vn 0.2126 0.9239 0.3182
vn 0.1802 0.3827 0.9061
vn 0.0747 0.9239 0.3753
vn -0.1802 0.3827 0.9061
vn -0.0747 0.9239 0.3753
vn -0.5133 0.3827 0.7682
vn -0.2126 0.9239 0.3182
vn -0.7682 0.3827 0.5133
vn -0.3182 0.9239 0.2126
vn -0.9061 0.3827 0.1802
vn -0.3753 0.9239 0.0747
vn -0.9061 0.3827 -0.1802
vn -0.3753 0.9239 -0.0747
vn -0.7682 0.3827 -0.5133
vn -0.3182 0.9239 -0.2126
vn -0.5133 0.3827 -0.7682
vn -0.2126 0.9239 -0.3182
vn -0.1802 0.3827 -0.9061
vn -0.0747 0.9239 -0.3753
vn 0.8315 0.5556 0.0000
vn 0.9808 0.1951 0.0000
vn 0.9808 -0.1951 0.0000
vn 0.8315 -0.5556 -0.0000
vn 0.5556 -0.8315 -0.0000
vn 0.1951 -0.9808 0.0000
vn -0.1951 -0.9808 0.0000
vn -0.5556 -0.8315 -0.0000
vn -0.8315 -0.5556 -0.0000
vn -0.9808 -0.1951 0.0000
vn -0.9808 0.1951 0.0000
vn -0.8315 0.5556 0.0000
vn 0.0013 1.0000 0.0000
vn 0.1802 0.9061 0.3827
vn 0.0747 0.3753 0.9239
vn 0.5133 0.7682 0.3827
vn 0.2126 0.3182 0.9239
vn 0.7682 0.5133 0.3827
vn 0.3182 0.2126 0.9239
vn 0.9061 0.1802 0.3827
vn 0.3753 0.0747 0.9239
vn 0.9061 -0.1802 0.3827
vn 0.3753 -0.0747 0.9239
vn 0.7682 -0.5133 0.3827
vn 0.3182 -0.2126 0.9239
vn 0.5133 -0.7682 0.3827
vn 0.2126 -0.3182 0.9239
vn 0.1802 -0.9061 0.3827
vn 0.0747 -0.3753 0.9239
vn -0.1802 -0.9061 0.3827
vn -0.0747 -0.3753 0.9239
vn -0.5133 -0.7682 0.3827
vn -0.2126 -0.3182 0.9239
vn -0.7682 -0.5133 0.3827
vn -0.3182 -0.2126 0.9239
vn -0.9061 -0.1802 0.3827
vn -0.3753 -0.0747 0.9239
vn -0.9061 0.1802 0.3827
vn -0.3753 0.0747 0.9239
vn -0.7682 0.5133 0.3827
vn -0.3182 0.2126 0.9239
vn -0.5133 0.7682 0.3827
vn -0.2126 0.3182 0.9239
vn -0.1802 0.9061 0.3827
vn -0.0747 0.3753 0.9239
vn 0.0043 1.0000 0.0000
vn -0.0013 1.0000 0.0000
vn -0.0043 1.0000 0.0000
vn -0.5643 -0.0000 0.8255
vn 0.5643 -0.0000 0.8255
usemtl None
s off
f 80//47 79//47 74//47 73//47
f 73//48 74//48 76//48 75//48
f 99//49 102//49 109//49 108//49
f 103//50 81//50 95//50 112//50
f 81//51 82//51 84//51 83//51
f 94//52 93//52 72//52 71//52
f 78//53 87//53 88//53 77//53
f 87//54 89//54 90//54 88//54
f 111//55 112//55 95//55 96//55 113//55 114//55
f 72//56 93//56 91//56 86//56
f 95//57 97//57 98//57 96//57
f 92//58 85//58 86//58 91//58
f 80//50 73//50 87//50 78//50
f 79//56 72//56 86//56 77//56
f 73//50 75//50 89//50 87//50
f 76//56 74//56 88//56 90//56
f 75//59 76//59 101//59 102//59 99//59 100//59
f 105//60 104//60 111//60 114//60
f 101//56 76//56 90//56 110//56
f 103//61 104//61 105//61 106//61 82//61 81//61
f 82//56 106//56 113//56 96//56
f 89//62 107//62 108//62 109//62 110//62 90//62
f 81//50 83//50 97//50 95//50
f 84//56 82//56 96//56 98//56
f 94//50 71//50 85//50 92//50
f 93//56 84//56 98//56 91//56
f 99//63 108//63 107//63 100//63
f 101//64 110//64 109//64 102//64
f 103//65 112//65 111//65 104//65
f 105//66 114//66 113//66 106//66
f 75//50 100//50 107//50 89//50
f 83//50 94//50 92//50 97//50
f 97//67 92//67 91//67 98//67
f 83//68 84//68 93//68 94//68
f 74//56 79//56 77//56 88//56
f 71//50 80//50 78//50 85//50
f 85//69 78//69 77//69 86//69
f 71//70 72//70 79//70 80//70
f 118//71 117//71 121//71 122//71
f 116//71 115//71 119//71 120//71
f 126//72 130//72 129//72 125//72
f 124//72 128//72 127//72 123//72
f 126//72 125//72 137//72 138//72
f 115//71 116//71 132//71 131//71
f 120//73 119//73 127//73 128//73
f 122//73 121//73 129//73 130//73
f 118//74 122//74 130//74 126//74
f 125//72 129//72 282//72 281//72
f 116//74 120//74 128//74 124//74
f 287//56 284//56 283//56 289//56
f 131//75 132//75 136//75 135//75
f 133//75 134//75 138//75 137//75
f 125//76 117//76 133//76 137//76
f 123//76 115//76 131//76 135//76
f 117//71 118//71 134//71 133//71
f 118//50 126//50 138//50 134//50
f 124//72 123//72 135//72 136//72
f 116//50 124//50 136//50 132//50
f 154//77 201//77 156//77 139//77
f 141//78 162//78 165//78 142//78
f 142//79 165//79 168//79 143//79
f 143//80 168//80 171//80 144//80
f 144//81 171//81 174//81 145//81
f 145//82 174//82 177//82 146//82
f 146//83 177//83 180//83 147//83
f 147//84 180//84 183//84 148//84
f 148//85 183//85 186//85 149//85
f 149//86 186//86 189//86 150//86
f 150//87 189//87 192//87 151//87
f 151//88 192//88 195//88 152//88
f 152//89 195//89 198//89 153//89
f 153//90 198//90 201//90 154//90
f 139//91 156//91 159//91 140//91
f 140//92 159//92 162//92 141//92
f 289//75 283//75 123//75 291//75
f 159//93 156//93 157//93 160//93
f 160//94 157//94 155//94 158//94
f 162//95 159//95 160//95 163//95
f 163//96 160//96 158//96 161//96
f 165//97 162//97 163//97 166//97
f 166//98 163//98 161//98 164//98
f 168//99 165//99 166//99 169//99
f 169//100 166//100 164//100 167//100
f 171//101 168//101 169//101 172//101
f 172//102 169//102 167//102 170//102
f 174//103 171//103 172//103 175//103
f 175//104 172//104 170//104 173//104
f 177//105 174//105 175//105 178//105
f 178//106 175//106 173//106 176//106
f 180//107 177//107 178//107 181//107
f 181//108 178//108 176//108 179//108
f 183//109 180//109 181//109 184//109
f 184//110 181//110 179//110 182//110
f 186//111 183//111 184//111 187//111
f 187//112 184//112 182//112 185//112
f 189//113 186//113 187//113 190//113
f 190//114 187//114 185//114 188//114
f 192//115 189//115 190//115 193//115
f 193//116 190//116 188//116 191//116
f 195//117 192//117 193//117 196//117
f 196//118 193//118 191//118 194//118
f 198//119 195//119 196//119 199//119
f 199//120 196//120 194//120 197//120
f 201//121 198//121 199//121 202//121
f 202//122 199//122 197//122 200//122
f 156//123 201//123 202//123 157//123
f 157//124 202//124 200//124 155//124
f 158//50 155//50 200//50 197//50 194//50 191//50 188//50 185//50 182//50 179//50 176//50 173//50 170//50 167//50 164//50 161//50
f 236//72 205//72 224//72 214//72
f 205//125 236//125 239//125 206//125
f 206//126 239//126 242//126 207//126
f 207//127 242//127 245//127 208//127
f 208//128 245//128 248//128 209//128
f 209//129 248//129 251//129 211//129
f 211//130 251//130 254//130 213//130
f 213//131 254//131 257//131 215//131
f 215//132 257//132 260//132 217//132
f 217//133 260//133 263//133 219//133
f 219//134 263//134 266//134 221//134
f 221//135 266//135 269//135 223//135
f 223//136 269//136 272//136 225//136
f 203//75 227//75 220//75 228//75
f 233//73 236//73 214//73 218//73
f 220//137 212//137 216//137 228//137
f 230//73 233//73 218//73 216//73
f 203//75 204//75 205//75 206//75 207//75 208//75 209//75 211//75 213//75 215//75 217//75 219//75 221//75 223//75 225//75 227//75
f 233//138 230//138 231//138 234//138
f 234//139 231//139 229//139 232//139
f 236//140 233//140 234//140 237//140
f 237//141 234//141 232//141 235//141
f 239//142 236//142 237//142 240//142
f 240//143 237//143 235//143 238//143
f 242//144 239//144 240//144 243//144
f 243//145 240//145 238//145 241//145
f 245//146 242//146 243//146 246//146
f 246//147 243//147 241//147 244//147
f 248//148 245//148 246//148 249//148
f 249//149 246//149 244//149 247//149
f 251//150 248//150 249//150 252//150
f 252//151 249//151 247//151 250//151
f 254//152 251//152 252//152 255//152
f 255//153 252//153 250//153 253//153
f 257//154 254//154 255//154 258//154
f 258//155 255//155 253//155 256//155
f 260//156 257//156 258//156 261//156
f 261//157 258//157 256//157 259//157
f 263//158 260//158 261//158 264//158
f 264//159 261//159 259//159 262//159
f 266//160 263//160 264//160 267//160
f 267//161 264//161 262//161 265//161
f 269//162 266//162 267//162 270//162
f 270//163 267//163 265//163 268//163
f 272//164 269//164 270//164 273//164
f 273//165 270//165 268//165 271//165
f 275//166 272//166 273//166 276//166
f 276//167 273//167 271//167 274//167
f 230//168 275//168 276//168 231//168
f 231//169 276//169 274//169 229//169
f 232//73 229//73 274//73 271//73 268//73 265//73 262//73 259//73 256//73 253//73 250//73 247//73 244//73 241//73 238//73 235//73
f 222//170 210//170 212//170 220//170
f 228//171 216//171 218//171 226//171
f 226//172 218//172 214//172 224//172
f 272//73 275//73 212//73 210//73
f 227//75 225//75 222//75 220//75
f 275//73 230//73 216//73 212//73
f 204//75 203//75 228//75 226//75
f 225//71 272//71 210//71 222//71
f 205//75 204//75 226//75 224//75
f 278//56 277//56 281//56 282//56
f 280//56 279//56 283//56 284//56
f 129//73 121//73 278//73 282//73
f 127//73 119//73 280//73 284//73
f 117//75 125//75 281//75 277//75
f 119//71 115//71 279//71 280//71
f 115//75 123//75 283//75 279//75
f 286//173 127//173 284//173 287//173
f 291//50 123//50 127//50 286//50
f 117//50 292//50 285//50 121//50
f 292//50 291//50 286//50 285//50
f 121//174 285//174 288//174 278//174
f 285//73 286//73 287//73 288//73
f 277//75 290//75 292//75 117//75
f 290//75 289//75 291//75 292//75
f 278//56 288//56 290//56 277//56
f 288//56 287//56 289//56 290//56
